<?xml version="1.0" encoding="UTF-8"?>
<svg width="59px" height="55px" viewBox="0 0 59 55" version="1.1" xmlns="http://www.w3.org/2000/svg" xmlns:xlink="http://www.w3.org/1999/xlink">
    <title>DisclaimerLogo</title>
    <g id="Page-1" stroke="none" stroke-width="1" fill="none" fill-rule="evenodd">
        <g id="דיסקליימר" transform="translate(-690.000000, -191.000000)" fill="#000000">
            <g id="Group-130" transform="translate(309.000000, 160.000000)">
                <g id="Group-20">
                    <g id="noun_Exclamation-Mark_3267551" transform="translate(381.413434, 31.000000)">
                        <g id="Group">
                            <path d="M30.0071951,0 C44.955122,0 57.0953659,12.1402439 57.0953659,27.0881707 C57.0953659,42.0360976 44.955122,54.1763415 30.0071951,54.1763415 C25.0518293,54.1763415 20.1943902,52.820122 15.9580488,50.249878 L0.132804878,54.8832927 L5.96414634,39.5610976 C3.96804878,35.7191463 2.91902439,31.4184146 2.91902439,27.0881707 C2.91902439,12.1402439 15.0592683,0 30.0071951,0 Z M30.0071951,3.06658537 C16.7320732,3.06658537 5.98560976,13.8130488 5.98560976,27.0881707 C5.98560976,31.1863415 6.99036585,35.1289024 8.97707317,38.7159756 L9.32585366,39.342439 L5.18341463,50.2230488 L16.4369512,46.9270732 L17.0178049,47.3026829 C20.917439,49.812561 25.3710976,51.1097561 30.0071951,51.1097561 C43.2823171,51.1097561 54.0287805,40.3632927 54.0287805,27.0881707 C54.0287805,13.8130488 43.2823171,3.06658537 30.0071951,3.06658537 Z" id="Shape" fill-rule="nonzero"></path>
                            <path d="M28.875,11.8089024 L31.1393902,11.8089024 C32.2635366,11.8089024 33.1395122,12.7452439 33.0657317,13.8667073 L31.7967073,33.1113415 C31.7323171,34.0879268 30.9529268,34.7023171 30.0031707,34.7023171 C29.057439,34.7023171 28.2820732,34.082561 28.2176829,33.1113415 L26.9486585,13.8667073 C26.874878,12.7452439 27.7508537,11.8089024 28.875,11.8089024 Z" id="Path"></path>
                            <path d="M30.0071951,37.2417073 C31.422439,37.2417073 32.5693902,38.3886585 32.5693902,39.8039024 C32.5693902,41.2191463 31.422439,42.3660976 30.0071951,42.3660976 C28.5919512,42.3660976 27.445,41.2191463 27.445,39.8039024 C27.445,38.3886585 28.5919512,37.2417073 30.0071951,37.2417073 Z" id="Path"></path>
                        </g>
                    </g>
                </g>
            </g>
        </g>
    </g>
</svg>