<svg xmlns="http://www.w3.org/2000/svg"  style="color: white;"  width="100%" height="100%" viewBox="0 0 24 24" class="eva eva-bar-chart-2" fill="currentColor"><g data-name="Layer 2"><g data-name="bar-chart-2"><rect width="24" height="24" transform="rotate(90 12 12)" opacity="0"></rect><path d="M12 8a1 1 0 0 0-1 1v11a1 1 0 0 0 2 0V9a1 1 0 0 0-1-1z"></path><path d="M19 4a1 1 0 0 0-1 1v15a1 1 0 0 0 2 0V5a1 1 0 0 0-1-1z"></path><path d="M5 12a1 1 0 0 0-1 1v7a1 1 0 0 0 2 0v-7a1 1 0 0 0-1-1z"></path></g></g></svg>